<svg width="24" height="24" viewBox="0 0 24 24" fill="none" xmlns="http://www.w3.org/2000/svg">
<circle cx="12" cy="12" r="11.5" fill="white" stroke="#DC2626"/>
<path d="M2.45935 12.292C2.45935 12.1533 2.48802 12.03 2.54535 11.922C2.60402 11.8127 2.68668 11.728 2.79335 11.668C2.90002 11.6067 3.02268 11.576 3.16135 11.576C3.33735 11.576 3.48535 11.6233 3.60535 11.718C3.72535 11.8113 3.80268 11.9387 3.83735 12.1H3.41535C3.39002 12.0467 3.35468 12.006 3.30935 11.978C3.26535 11.95 3.21402 11.936 3.15535 11.936C3.06468 11.936 2.99202 11.9687 2.93735 12.034C2.88402 12.098 2.85735 12.184 2.85735 12.292C2.85735 12.4013 2.88402 12.4887 2.93735 12.554C2.99202 12.618 3.06468 12.65 3.15535 12.65C3.21402 12.65 3.26535 12.636 3.30935 12.608C3.35468 12.58 3.39002 12.5393 3.41535 12.486H3.83735C3.80268 12.6473 3.72535 12.7753 3.60535 12.87C3.48535 12.9633 3.33735 13.01 3.16135 13.01C3.02268 13.01 2.90002 12.98 2.79335 12.92C2.68668 12.8587 2.60402 12.774 2.54535 12.666C2.48802 12.5567 2.45935 12.432 2.45935 12.292ZM4.79498 11.904V12.134H5.24498V12.432H4.79498V12.686H5.30498V13H4.40298V11.59H5.30498V11.904H4.79498ZM6.27068 12.7H6.70868V13H5.87868V11.59H6.27068V12.7ZM7.6331 11.904V12.134H8.0831V12.432H7.6331V12.686H8.1431V13H7.2411V11.59H8.1431V11.904H7.6331ZM9.6168 12.276C9.69947 12.2947 9.7648 12.336 9.8128 12.4C9.86214 12.4627 9.8868 12.5347 9.8868 12.616C9.8868 12.736 9.84547 12.83 9.7628 12.898C9.68014 12.966 9.56414 13 9.4148 13H8.7168V11.59H9.3928C9.5368 11.59 9.64947 11.622 9.7308 11.686C9.81347 11.75 9.8548 11.84 9.8548 11.956C9.8548 12.0387 9.8328 12.108 9.7888 12.164C9.74614 12.2187 9.6888 12.256 9.6168 12.276ZM9.1088 12.15H9.3068C9.40547 12.15 9.4548 12.1093 9.4548 12.028C9.4548 11.944 9.40547 11.902 9.3068 11.902H9.1088V12.15ZM9.3368 12.684C9.43547 12.684 9.4848 12.6427 9.4848 12.56C9.4848 12.5173 9.47147 12.4847 9.4448 12.462C9.41947 12.4393 9.3828 12.428 9.3348 12.428H9.1088V12.684H9.3368ZM11.1526 13L10.8726 12.48H10.8306V13H10.4386V11.59H11.0566C11.1699 11.59 11.2659 11.61 11.3446 11.65C11.4233 11.6887 11.4826 11.7427 11.5226 11.812C11.5626 11.88 11.5826 11.9567 11.5826 12.042C11.5826 12.138 11.5559 12.2227 11.5026 12.296C11.4506 12.368 11.3739 12.4193 11.2726 12.45L11.5906 13H11.1526ZM10.8306 12.212H11.0246C11.0779 12.212 11.1179 12.1993 11.1446 12.174C11.1713 12.1487 11.1846 12.112 11.1846 12.064C11.1846 12.0187 11.1706 11.9833 11.1426 11.958C11.1159 11.9313 11.0766 11.918 11.0246 11.918H10.8306V12.212ZM13.0329 12.77H12.5329L12.4569 13H12.0449L12.5589 11.59H13.0109L13.5229 13H13.1089L13.0329 12.77ZM12.9349 12.47L12.7829 12.014L12.6329 12.47H12.9349ZM15.0926 11.59V11.902H14.7166V13H14.3246V11.902H13.9526V11.59H15.0926ZM16.0097 11.59V13H15.6177V11.59H16.0097ZM17.2889 13.014C17.1569 13.014 17.0356 12.9833 16.9249 12.922C16.8142 12.8593 16.7262 12.7733 16.6609 12.664C16.5969 12.5533 16.5649 12.4287 16.5649 12.29C16.5649 12.1513 16.5969 12.0273 16.6609 11.918C16.7262 11.8073 16.8142 11.7213 16.9249 11.66C17.0356 11.5987 17.1569 11.568 17.2889 11.568C17.4222 11.568 17.5436 11.5987 17.6529 11.66C17.7636 11.7213 17.8509 11.8073 17.9149 11.918C17.9789 12.0273 18.0109 12.1513 18.0109 12.29C18.0109 12.4287 17.9789 12.5533 17.9149 12.664C17.8509 12.7733 17.7636 12.8593 17.6529 12.922C17.5422 12.9833 17.4209 13.014 17.2889 13.014ZM17.2889 12.65C17.3889 12.65 17.4676 12.6173 17.5249 12.552C17.5836 12.4867 17.6129 12.3993 17.6129 12.29C17.6129 12.178 17.5836 12.09 17.5249 12.026C17.4676 11.9607 17.3889 11.928 17.2889 11.928C17.1876 11.928 17.1082 11.9607 17.0509 12.026C16.9936 12.09 16.9649 12.178 16.9649 12.29C16.9649 12.4007 16.9936 12.4887 17.0509 12.554C17.1082 12.618 17.1876 12.65 17.2889 12.65ZM19.8731 13H19.4811L18.9591 12.212V13H18.5671V11.59H18.9591L19.4811 12.388V11.59H19.8731V13ZM21.0084 13.014C20.8444 13.014 20.7097 12.9753 20.6044 12.898C20.4991 12.8193 20.4424 12.7073 20.4344 12.562H20.8524C20.8564 12.6113 20.8711 12.6473 20.8964 12.67C20.9217 12.6927 20.9544 12.704 20.9944 12.704C21.0304 12.704 21.0597 12.6953 21.0824 12.678C21.1064 12.6593 21.1184 12.634 21.1184 12.602C21.1184 12.5607 21.0991 12.5287 21.0604 12.506C21.0217 12.4833 20.9591 12.458 20.8724 12.43C20.7804 12.3993 20.7057 12.37 20.6484 12.342C20.5924 12.3127 20.5431 12.2707 20.5004 12.216C20.4591 12.16 20.4384 12.0873 20.4384 11.998C20.4384 11.9073 20.4611 11.83 20.5064 11.766C20.5517 11.7007 20.6144 11.6513 20.6944 11.618C20.7744 11.5847 20.8651 11.568 20.9664 11.568C21.1304 11.568 21.2611 11.6067 21.3584 11.684C21.4571 11.76 21.5097 11.8673 21.5164 12.006H21.0904C21.0891 11.9633 21.0757 11.9313 21.0504 11.91C21.0264 11.8887 20.9951 11.878 20.9564 11.878C20.9271 11.878 20.9031 11.8867 20.8844 11.904C20.8657 11.9213 20.8564 11.946 20.8564 11.978C20.8564 12.0047 20.8664 12.028 20.8864 12.048C20.9077 12.0667 20.9337 12.0833 20.9644 12.098C20.9951 12.1113 21.0404 12.1287 21.1004 12.15C21.1897 12.1807 21.2631 12.2113 21.3204 12.242C21.3791 12.2713 21.4291 12.3133 21.4704 12.368C21.5131 12.4213 21.5344 12.4893 21.5344 12.572C21.5344 12.656 21.5131 12.7313 21.4704 12.798C21.4291 12.8647 21.3684 12.9173 21.2884 12.956C21.2097 12.9947 21.1164 13.014 21.0084 13.014Z" fill="#DC2626"/>
</svg>
