<svg width="28" height="24" viewBox="0 0 28 24" fill="none" xmlns="http://www.w3.org/2000/svg">
<g clip-path="url(#clip0_3121_4333)">
<path d="M26 12C26 5.37258 20.6274 0 14 0C7.37258 0 2 5.37258 2 12C2 17.9895 6.3882 22.954 12.125 23.8542V15.4688H9.07812V12H12.125V9.35625C12.125 6.34875 13.9166 4.6875 16.6576 4.6875C17.9701 4.6875 19.3438 4.92188 19.3438 4.92188V7.875H17.8306C16.34 7.875 15.875 8.80008 15.875 9.75V12H19.2031L18.6711 15.4688H15.875V23.8542C21.6118 22.954 26 17.9895 26 12Z" fill="#4285F4"/>
<path d="M18.6711 15.4688L19.2031 12H15.875V9.75C15.875 8.80102 16.34 7.875 17.8306 7.875H19.3438V4.92188C19.3438 4.92188 17.9705 4.6875 16.6576 4.6875C13.9166 4.6875 12.125 6.34875 12.125 9.35625V12H9.07812V15.4688H12.125V23.8542C13.3674 24.0486 14.6326 24.0486 15.875 23.8542V15.4688H18.6711Z" fill="white"/>
</g>
<defs>
<clipPath id="clip0_3121_4333">
<rect width="24" height="24" fill="white" transform="translate(2)"/>
</clipPath>
</defs>
</svg>
