<svg width="25" height="25" viewBox="0 0 25 25" fill="none" xmlns="http://www.w3.org/2000/svg">
<g clip-path="url(#clip0_926_82078)">
<path d="M12.5039 0.5C7.49403 0.5 6.02883 0.50517 5.74402 0.528802C4.7159 0.614287 4.07615 0.776208 3.37917 1.12331C2.84204 1.39011 2.41843 1.69936 2.00035 2.13288C1.23896 2.92347 0.777507 3.8961 0.610461 5.05226C0.529246 5.61354 0.505619 5.72801 0.50082 8.59496C0.498975 9.55061 0.50082 10.8083 0.50082 12.4953C0.50082 17.5025 0.506358 18.9666 0.530353 19.2509C0.613415 20.2516 0.770308 20.8812 1.10255 21.5699C1.73751 22.8882 2.95021 23.8778 4.37886 24.2471C4.87354 24.3745 5.4199 24.4446 6.1213 24.4778C6.41848 24.4908 9.44744 24.5 12.4783 24.5C15.5091 24.5 18.5399 24.4963 18.8297 24.4815C19.6418 24.4433 20.1134 24.38 20.6349 24.2452C21.3433 24.0635 22.0035 23.7293 22.5693 23.2659C23.1352 22.8026 23.5932 22.2212 23.9112 21.5625C24.237 20.8905 24.4022 20.2369 24.4769 19.2884C24.4932 19.0816 24.5 15.7847 24.5 12.4922C24.5 9.19907 24.4926 5.90821 24.4764 5.70142C24.4007 4.73765 24.2355 4.0896 23.8992 3.40461C23.6232 2.84389 23.3168 2.42515 22.872 1.99699C22.0783 1.23852 21.1074 0.776947 19.9503 0.61004C19.3897 0.528987 19.278 0.504985 16.4096 0.5H12.5039Z" fill="url(#paint0_radial_926_82078)"/>
<path d="M12.5039 0.5C7.49403 0.5 6.02883 0.50517 5.74402 0.528802C4.7159 0.614287 4.07615 0.776208 3.37917 1.12331C2.84204 1.39011 2.41843 1.69936 2.00035 2.13288C1.23896 2.92347 0.777507 3.8961 0.610461 5.05226C0.529246 5.61354 0.505619 5.72801 0.50082 8.59496C0.498975 9.55061 0.50082 10.8083 0.50082 12.4953C0.50082 17.5025 0.506358 18.9666 0.530353 19.2509C0.613415 20.2516 0.770308 20.8812 1.10255 21.5699C1.73751 22.8882 2.95021 23.8778 4.37886 24.2471C4.87354 24.3745 5.4199 24.4446 6.1213 24.4778C6.41848 24.4908 9.44744 24.5 12.4783 24.5C15.5091 24.5 18.5399 24.4963 18.8297 24.4815C19.6418 24.4433 20.1134 24.38 20.6349 24.2452C21.3433 24.0635 22.0035 23.7293 22.5693 23.2659C23.1352 22.8026 23.5932 22.2212 23.9112 21.5625C24.237 20.8905 24.4022 20.2369 24.4769 19.2884C24.4932 19.0816 24.5 15.7847 24.5 12.4922C24.5 9.19907 24.4926 5.90821 24.4764 5.70142C24.4007 4.73765 24.2355 4.0896 23.8992 3.40461C23.6232 2.84389 23.3168 2.42515 22.872 1.99699C22.0783 1.23852 21.1074 0.776947 19.9503 0.61004C19.3897 0.528987 19.278 0.504985 16.4096 0.5H12.5039Z" fill="url(#paint1_radial_926_82078)"/>
<path d="M12.5007 3.5C10.0564 3.5 9.74963 3.51069 8.78962 3.55438C7.83148 3.59825 7.17748 3.74994 6.60522 3.9725C6.01328 4.20238 5.51115 4.50988 5.01089 5.01031C4.51026 5.51056 4.20276 6.01269 3.97213 6.60444C3.749 7.17687 3.59713 7.83106 3.554 8.78881C3.51125 9.74881 3.5 10.0557 3.5 12.5C3.5 14.9443 3.51088 15.2501 3.55438 16.2101C3.59844 17.1682 3.75013 17.8222 3.97251 18.3944C4.20257 18.9864 4.51007 19.4885 5.01052 19.9888C5.51058 20.4894 6.01271 20.7976 6.60428 21.0275C7.17691 21.2501 7.83111 21.4018 8.78905 21.4456C9.74906 21.4893 10.0556 21.5 12.4997 21.5C14.9442 21.5 15.25 21.4893 16.21 21.4456C17.1681 21.4018 17.8229 21.2501 18.3955 21.0275C18.9873 20.7976 19.4887 20.4894 19.9887 19.9888C20.4894 19.4885 20.7969 18.9864 21.0275 18.3946C21.2487 17.8222 21.4006 17.168 21.4456 16.2103C21.4888 15.2503 21.5 14.9443 21.5 12.5C21.5 10.0557 21.4888 9.749 21.4456 8.789C21.4006 7.83087 21.2487 7.17687 21.0275 6.60462C20.7969 6.01269 20.4894 5.51056 19.9887 5.01031C19.4881 4.50969 18.9875 4.20219 18.395 3.9725C17.8212 3.74994 17.1668 3.59825 16.2087 3.55438C15.2487 3.51069 14.9431 3.5 12.498 3.5H12.5007ZM11.6933 5.12187C11.9329 5.1215 12.2003 5.12187 12.5007 5.12187C14.9037 5.12187 15.1885 5.1305 16.1374 5.17363C17.015 5.21375 17.4912 5.36038 17.8085 5.48356C18.2285 5.64669 18.5279 5.84169 18.8427 6.15669C19.1577 6.47169 19.3527 6.77169 19.5162 7.19169C19.6394 7.50856 19.7862 7.98481 19.8262 8.86231C19.8693 9.81106 19.8787 10.0961 19.8787 12.4979C19.8787 14.8998 19.8693 15.1848 19.8262 16.1336C19.786 17.0111 19.6394 17.4873 19.5162 17.8042C19.3531 18.2242 19.1577 18.5233 18.8427 18.8381C18.5277 19.1531 18.2287 19.3481 17.8085 19.5112C17.4916 19.6349 17.015 19.7812 16.1374 19.8213C15.1887 19.8644 14.9037 19.8738 12.5007 19.8738C10.0974 19.8738 9.81263 19.8644 8.86387 19.8213C7.98636 19.7808 7.5101 19.6342 7.19266 19.511C6.77266 19.3479 6.47266 19.1529 6.15765 18.8379C5.84265 18.5229 5.64765 18.2236 5.48415 17.8034C5.36096 17.4866 5.21414 17.0103 5.17421 16.1328C5.13108 15.1841 5.12245 14.8991 5.12245 12.4957C5.12245 10.0923 5.13108 9.80881 5.17421 8.86006C5.21433 7.98256 5.36096 7.50631 5.48415 7.18906C5.64727 6.76906 5.84265 6.46906 6.15765 6.15406C6.47266 5.83906 6.77266 5.64406 7.19266 5.48056C7.50992 5.35681 7.98636 5.21056 8.86387 5.17025C9.69413 5.13275 10.0159 5.1215 11.6933 5.11963V5.12187ZM17.3048 6.61625C17.0912 6.61625 16.8824 6.6796 16.7048 6.79829C16.5272 6.91698 16.3887 7.08567 16.307 7.28304C16.2253 7.4804 16.2039 7.69758 16.2456 7.90709C16.2873 8.1166 16.3902 8.30903 16.5413 8.46006C16.6924 8.61108 16.8848 8.71391 17.0944 8.75554C17.3039 8.79717 17.5211 8.77573 17.7184 8.69393C17.9157 8.61213 18.0844 8.47365 18.203 8.29599C18.3216 8.11834 18.3849 7.90949 18.3848 7.69587C18.3848 7.09962 17.9011 6.61588 17.3048 6.61588V6.61625ZM12.5007 7.87812C9.94819 7.87812 7.87873 9.94756 7.87873 12.5C7.87873 15.0524 9.94819 17.1209 12.5007 17.1209C15.0531 17.1209 17.122 15.0524 17.122 12.5C17.122 9.94756 15.0531 7.87812 12.5007 7.87812ZM12.5007 9.5C14.1574 9.5 15.5007 10.8431 15.5007 12.5C15.5007 14.1567 14.1574 15.5 12.5007 15.5C10.8437 15.5 9.50062 14.1567 9.50062 12.5C9.50062 10.8431 10.8437 9.5 12.5007 9.5Z" fill="white"/>
</g>
<defs>
<radialGradient id="paint0_radial_926_82078" cx="0" cy="0" r="1" gradientUnits="userSpaceOnUse" gradientTransform="translate(6.87503 26.3485) rotate(-90) scale(23.7858 22.1226)">
<stop stop-color="#FFDD55"/>
<stop offset="0.1" stop-color="#FFDD55"/>
<stop offset="0.5" stop-color="#FF543E"/>
<stop offset="1" stop-color="#C837AB"/>
</radialGradient>
<radialGradient id="paint1_radial_926_82078" cx="0" cy="0" r="1" gradientUnits="userSpaceOnUse" gradientTransform="translate(-3.52013 2.22892) rotate(78.6806) scale(10.6323 43.827)">
<stop stop-color="#3771C8"/>
<stop offset="0.128" stop-color="#3771C8"/>
<stop offset="1" stop-color="#6600FF" stop-opacity="0"/>
</radialGradient>
<clipPath id="clip0_926_82078">
<rect width="24" height="24" fill="white" transform="translate(0.5 0.5)"/>
</clipPath>
</defs>
</svg>
